<svg xmlns="http://www.w3.org/2000/svg" width="1280" height="720" viewBox="0 0 1280 720" role="img" aria-labelledby="title desc">
  <title id="title">GSA TV — Continuidade</title>
  <desc id="desc">Tela oficial de continuidade da GSA TV.</desc>
  <defs>
    <radialGradient id="bg" cx="50%" cy="42%" r="74%">
      <stop offset="0" stop-color="#172235"/>
      <stop offset="1" stop-color="#070d18"/>
    </radialGradient>
    <linearGradient id="gold" x1="10%" y1="100%" x2="90%" y2="0%">
      <stop offset="0" stop-color="#9b6d20"/>
      <stop offset=".46" stop-color="#fff0bd"/>
      <stop offset="1" stop-color="#c99b3e"/>
    </linearGradient>
    <linearGradient id="navy" x1="0" y1="0" x2="1" y2="1">
      <stop offset="0" stop-color="#2a3847"/>
      <stop offset="1" stop-color="#101722"/>
    </linearGradient>
    <filter id="shadow" x="-40%" y="-40%" width="180%" height="180%">
      <feDropShadow dx="0" dy="14" stdDeviation="14" flood-color="#000" flood-opacity=".42"/>
    </filter>
  </defs>
  <rect width="1280" height="720" fill="url(#bg)"/>
  <path d="M0 640C250 580 405 670 650 625s390-24 630 30v65H0Z" fill="#bd9440" opacity=".08"/>
  <g transform="translate(530 105) scale(2.2)" filter="url(#shadow)">
    <path d="M50 6 82 14v34c0 24-32 46-32 46S18 72 18 48V14Z" fill="url(#navy)" stroke="url(#gold)" stroke-width="4" stroke-linejoin="round"/>
    <path d="M28 50h5v11h-5zm9-8h5v19h-5zm9-12h5v31h-5z" fill="url(#gold)"/>
    <path d="M17 56c28 26 48 9 68-28C72 58 48 72 17 56Zm6 10c27 24 47 9 65-21C72 73 50 84 23 66Z" fill="url(#gold)"/>
  </g>
  <text x="640" y="405" text-anchor="middle" fill="#fff" font-family="Arial, Helvetica, sans-serif" font-size="72" font-weight="800" letter-spacing="10">GSA TV</text>
  <rect x="490" y="438" width="300" height="3" rx="2" fill="url(#gold)"/>
  <text x="640" y="495" text-anchor="middle" fill="#d2d9e6" font-family="Arial, Helvetica, sans-serif" font-size="27" font-weight="500" letter-spacing="2">PROGRAMAÇÃO 24 HORAS</text>
  <text x="640" y="552" text-anchor="middle" fill="#9ca8bb" font-family="Arial, Helvetica, sans-serif" font-size="22">Voltamos em instantes</text>
</svg>
